<svg width="12" height="12" viewBox="0 0 12 12" fill="none" xmlns="http://www.w3.org/2000/svg">
<g clip-path="url(#clip0)">
<path d="M0.551951 6.60001L4.06795 10.116C4.39195 10.44 4.93195 10.44 5.25595 10.116C5.57995 9.79201 5.57995 9.25201 5.25595 8.92801L3.17995 6.84001L10.86 6.84001C11.328 6.84001 11.7 6.46801 11.7 6.00001C11.7 5.53201 11.328 5.16001 10.86 5.16001L3.17995 5.16001L5.25595 3.08401C5.57995 2.76001 5.57995 2.22001 5.25595 1.89601C5.08795 1.72801 4.87195 1.64401 4.65595 1.64401C4.43995 1.64401 4.22395 1.72801 4.05595 1.89601L0.551951 5.40001C0.395951 5.55601 0.299951 5.77201 0.299951 6.00001C0.299951 6.22801 0.383951 6.44401 0.551951 6.60001Z" fill="#2F3A4E"/>
</g>
<defs>
<clipPath id="clip0">
<rect width="12" height="12" fill="white" transform="translate(12 12) rotate(-180)"/>
</clipPath>
</defs>
</svg>
