<svg width="18" height="12" viewBox="0 0 18 12" fill="none" xmlns="http://www.w3.org/2000/svg">
<path d="M4.8599 0.419983C3.77278 0.419983 2.8799 1.31286 2.8799 2.39998C2.8799 3.48711 3.77278 4.37998 4.8599 4.37998C5.65984 4.37998 6.35428 3.89854 6.66553 3.20998C6.7141 4.45405 7.74459 5.45998 8.9999 5.45998C10.2552 5.45998 11.2857 4.45405 11.3343 3.20998C11.6455 3.89854 12.34 4.37998 13.1399 4.37998C14.227 4.37998 15.1199 3.48711 15.1199 2.39998C15.1199 1.31286 14.227 0.419983 13.1399 0.419983C12.1018 0.419983 11.2411 1.23372 11.1655 2.25373C10.818 1.39485 9.97878 0.779983 8.9999 0.779983C8.02103 0.779983 7.18178 1.39485 6.83428 2.25373C6.75873 1.23372 5.898 0.419983 4.8599 0.419983ZM4.8599 1.49998C5.36336 1.49998 5.7599 1.89653 5.7599 2.39998C5.7599 2.90344 5.36336 3.29998 4.8599 3.29998C4.35645 3.29998 3.9599 2.90344 3.9599 2.39998C3.9599 1.89653 4.35645 1.49998 4.8599 1.49998ZM13.1399 1.49998C13.6434 1.49998 14.0399 1.89653 14.0399 2.39998C14.0399 2.90344 13.6434 3.29998 13.1399 3.29998C12.6364 3.29998 12.2399 2.90344 12.2399 2.39998C12.2399 1.89653 12.6364 1.49998 13.1399 1.49998ZM8.9999 1.85998C9.70218 1.85998 10.2599 2.41771 10.2599 3.11998C10.2599 3.82226 9.70218 4.37998 8.9999 4.37998C8.29763 4.37998 7.7399 3.82226 7.7399 3.11998C7.7399 2.41771 8.29763 1.85998 8.9999 1.85998ZM4.8599 4.55998C3.82972 4.55998 2.89346 4.7903 2.17115 5.20686C1.44885 5.62341 0.899902 6.27819 0.899902 7.07998V9.23998C0.899917 9.3832 0.956814 9.52055 1.05808 9.62181C1.15935 9.72308 1.29669 9.77997 1.4399 9.77998H4.6799V11.04C4.67992 11.1832 4.73681 11.3205 4.83808 11.4218C4.93935 11.5231 5.07669 11.58 5.2199 11.58H12.7799C12.9231 11.58 13.0605 11.5231 13.1617 11.4218C13.263 11.3205 13.3199 11.1832 13.3199 11.04V9.77998H16.5599C16.7031 9.77997 16.8405 9.72308 16.9417 9.62181C17.043 9.52055 17.0999 9.3832 17.0999 9.23998V7.07998C17.0999 6.27819 16.551 5.62341 15.8287 5.20686C15.1063 4.7903 14.1701 4.55998 13.1399 4.55998C11.667 4.55998 10.3609 4.99415 9.65803 5.85373C9.44214 5.8351 9.22479 5.81998 8.9999 5.81998C8.77501 5.81998 8.55766 5.8351 8.34178 5.85373C7.63892 4.99415 6.3328 4.55998 4.8599 4.55998ZM4.8599 5.63998C5.69481 5.63998 6.42699 5.84835 6.94115 6.12373C6.62328 6.2256 6.32623 6.34951 6.05803 6.5006C5.26935 6.94489 4.6799 7.65498 4.6799 8.51998V8.69998H1.9799V7.07998C1.9799 6.77379 2.19713 6.43704 2.71115 6.1406C3.22518 5.84416 3.99541 5.63998 4.8599 5.63998ZM13.1399 5.63998C14.0044 5.63998 14.7746 5.84416 15.2887 6.1406C15.8027 6.43704 16.0199 6.77379 16.0199 7.07998V8.69998H13.3199V8.51998C13.3199 7.65498 12.7305 6.94487 11.9418 6.5006C11.6736 6.34951 11.3765 6.2256 11.0587 6.12373C11.5728 5.84835 12.305 5.63998 13.1399 5.63998ZM8.9999 6.89998C9.96797 6.89998 10.8296 7.12012 11.4074 7.4456C11.9852 7.77109 12.2399 8.14404 12.2399 8.51998V10.5H5.7599V8.51998C5.7599 8.14404 6.01461 7.77109 6.5924 7.4456C7.17019 7.12012 8.03184 6.89998 8.9999 6.89998Z" fill="#78849B"/>
</svg>
