<svg width="16" height="16" viewBox="0 0 16 16" fill="none" xmlns="http://www.w3.org/2000/svg">
<path d="M14.75 2.37493H12.7329L11.2102 0.852242C10.9905 0.632586 10.6345 0.632586 10.4148 0.852242L8.89213 2.37493H7.10816L5.58519 0.852242C5.36581 0.632586 5.00919 0.632586 4.78981 0.852242L3.26684 2.37493H1.25C0.9395 2.37493 0.6875 2.62693 0.6875 2.93743V14.7499C0.6875 15.0604 0.9395 15.3124 1.25 15.3124H6.875C7.1855 15.3124 7.4375 15.0604 7.4375 14.7499V13.6249H8.5625V14.7499C8.5625 15.0604 8.8145 15.3124 9.125 15.3124H14.75C15.0605 15.3124 15.3125 15.0604 15.3125 14.7499V2.93743C15.3125 2.62693 15.0605 2.37493 14.75 2.37493ZM14.1875 14.1874H9.6875V13.0624C9.6875 12.7519 9.4355 12.4999 9.125 12.4999H6.875C6.5645 12.4999 6.3125 12.7519 6.3125 13.0624V14.1874H1.8125V3.49993H3.5C3.64906 3.49993 3.79222 3.44059 3.89769 3.33512L5.1875 2.04559L6.47731 3.33512C6.58278 3.44059 6.72594 3.49993 6.875 3.49993H9.125C9.27406 3.49993 9.41722 3.44059 9.52269 3.33512L10.8125 2.04559L12.1023 3.33512C12.2078 3.44059 12.3509 3.49993 12.5 3.49993H14.1875V14.1874Z" fill="#78849B"/>
<path d="M6.3125 4.625H3.5C3.1895 4.625 2.9375 4.877 2.9375 5.1875C2.9375 5.498 3.1895 5.75 3.5 5.75H6.3125C6.623 5.75 6.875 5.498 6.875 5.1875C6.875 4.877 6.623 4.625 6.3125 4.625Z" fill="#78849B"/>
<path d="M9.6875 4.625C9.377 4.625 9.125 4.877 9.125 5.1875C9.125 5.498 9.377 5.75 9.6875 5.75H12.5C12.8105 5.75 13.0625 5.498 13.0625 5.1875C13.0625 4.877 12.8105 4.625 12.5 4.625H9.6875Z" fill="#78849B"/>
<path d="M6.3125 6.3125H3.5C3.1895 6.3125 2.9375 6.5645 2.9375 6.875C2.9375 7.1855 3.1895 7.4375 3.5 7.4375H6.3125C6.623 7.4375 6.875 7.1855 6.875 6.875C6.875 6.5645 6.623 6.3125 6.3125 6.3125Z" fill="#78849B"/>
<path d="M12.5 6.3125H9.6875C9.377 6.3125 9.125 6.5645 9.125 6.875C9.125 7.1855 9.377 7.4375 9.6875 7.4375H12.5C12.8105 7.4375 13.0625 7.1855 13.0625 6.875C13.0625 6.5645 12.8105 6.3125 12.5 6.3125Z" fill="#78849B"/>
<path d="M6.3125 8.5625H3.5C3.1895 8.5625 2.9375 8.8145 2.9375 9.125C2.9375 9.4355 3.1895 9.6875 3.5 9.6875H6.3125C6.623 9.6875 6.875 9.4355 6.875 9.125C6.875 8.8145 6.623 8.5625 6.3125 8.5625Z" fill="#78849B"/>
<path d="M12.5 8.5625H9.6875C9.377 8.5625 9.125 8.8145 9.125 9.125C9.125 9.4355 9.377 9.6875 9.6875 9.6875H12.5C12.8105 9.6875 13.0625 9.4355 13.0625 9.125C13.0625 8.8145 12.8105 8.5625 12.5 8.5625Z" fill="#78849B"/>
<path d="M6.3125 10.25H3.5C3.1895 10.25 2.9375 10.502 2.9375 10.8125C2.9375 11.123 3.1895 11.375 3.5 11.375H6.3125C6.623 11.375 6.875 11.123 6.875 10.8125C6.875 10.502 6.623 10.25 6.3125 10.25Z" fill="#78849B"/>
<path d="M12.5 10.25H9.6875C9.377 10.25 9.125 10.502 9.125 10.8125C9.125 11.123 9.377 11.375 9.6875 11.375H12.5C12.8105 11.375 13.0625 11.123 13.0625 10.8125C13.0625 10.502 12.8105 10.25 12.5 10.25Z" fill="#78849B"/>
</svg>
