<svg width="18" height="18" viewBox="0 0 18 18" fill="none" xmlns="http://www.w3.org/2000/svg">
<path d="M16.1459 12.2488V15.4123C16.1459 15.4753 16.1369 15.5338 16.1234 15.5878C16.0604 15.8983 15.7859 16.1323 15.4619 16.1323H2.53344C2.18694 16.1323 1.89894 15.8668 1.86294 15.5293C1.85394 15.4888 1.85394 15.4528 1.85394 15.4078V12.2443C1.85394 11.8708 2.15994 11.5693 2.52894 11.5693C2.71344 11.5693 2.88444 11.6458 3.00594 11.7673C3.12744 11.8888 3.20394 12.0598 3.20394 12.2443V14.7778H14.8004V12.2443C14.8004 11.8708 15.1064 11.5693 15.4754 11.5693C15.6599 11.5693 15.8309 11.6458 15.9524 11.7673C16.0694 11.8933 16.1459 12.0643 16.1459 12.2488Z" fill="#FFB002"/>
<path d="M12.8923 9.08093L9.57577 12.3974C9.57127 12.4064 9.56227 12.4109 9.55777 12.4154C9.43627 12.5369 9.27877 12.6134 9.12127 12.6359C9.10777 12.6359 9.09427 12.6404 9.08077 12.6404C9.05377 12.6449 9.02677 12.6449 8.99977 12.6449L8.92327 12.6404C8.90977 12.6404 8.89627 12.6359 8.88277 12.6359C8.72077 12.6134 8.56777 12.5369 8.44627 12.4154C8.44177 12.4109 8.43277 12.4019 8.42827 12.3974L5.11176 9.08093C4.95876 8.92793 4.88226 8.72543 4.88226 8.52293C4.88226 8.32043 4.95876 8.11793 5.11176 7.96493C5.41776 7.65893 5.91726 7.65893 6.22776 7.96493L8.22127 9.95843V2.65493C8.22127 2.22293 8.57677 1.86743 9.00877 1.86743C9.22477 1.86743 9.42277 1.95743 9.56677 2.09693C9.71077 2.24093 9.79627 2.43443 9.79627 2.65493V9.95843L11.7898 7.96493C12.0958 7.65893 12.5953 7.65893 12.9058 7.96493C13.1983 8.27543 13.1983 8.77493 12.8923 9.08093Z" fill="#FFB002"/>
</svg>
