<svg width="14" height="14" viewBox="0 0 14 14" fill="none" xmlns="http://www.w3.org/2000/svg">
<path d="M7 9.8C7.91826 9.8 8.69886 10.3894 8.98417 11.2105L9.01835 11.2047L9.1 11.2H13.3C13.6866 11.2 14 11.5134 14 11.9C14 12.259 13.7298 12.5549 13.3816 12.5953L13.3 12.6H9.1C9.06041 12.6 9.02158 12.5967 8.98379 12.5904C8.69886 13.4106 7.91826 14 7 14C6.08174 14 5.30114 13.4106 5.01583 12.5895L4.98165 12.5953L4.9 12.6H0.7C0.3134 12.6 0 12.2866 0 11.9C0 11.541 0.270216 11.2451 0.618353 11.2047L0.7 11.2H4.9C4.93959 11.2 4.97842 11.2033 5.01621 11.2096C5.30114 10.3894 6.08174 9.8 7 9.8ZM7 11.2C6.6134 11.2 6.3 11.5134 6.3 11.9C6.3 12.2866 6.6134 12.6 7 12.6C7.3866 12.6 7.7 12.2866 7.7 11.9C7.7 11.5134 7.3866 11.2 7 11.2ZM2.1 4.9C3.01826 4.9 3.79886 5.48937 4.08417 6.31047L4.11835 6.30471L4.2 6.3H13.3C13.6866 6.3 14 6.6134 14 7C14 7.35898 13.7298 7.65485 13.3816 7.69529L13.3 7.7H4.2C4.16041 7.7 4.12158 7.69671 4.08379 7.6904C3.79886 8.51063 3.01826 9.1 2.1 9.1C0.940202 9.1 0 8.1598 0 7C0 5.8402 0.940202 4.9 2.1 4.9ZM2.1 6.3C1.7134 6.3 1.4 6.6134 1.4 7C1.4 7.3866 1.7134 7.7 2.1 7.7C2.4866 7.7 2.8 7.3866 2.8 7C2.8 6.6134 2.4866 6.3 2.1 6.3ZM9.8 0C10.7183 0 11.4989 0.58937 11.7842 1.41047L11.8184 1.40471L11.9 1.4H13.3C13.6866 1.4 14 1.7134 14 2.1C14 2.45899 13.7298 2.75485 13.3816 2.79529L13.3 2.8H11.9C11.8604 2.8 11.8216 2.79671 11.7838 2.7904C11.4989 3.61063 10.7183 4.2 9.8 4.2C8.88174 4.2 8.10114 3.61063 7.81583 2.78953L7.78165 2.79529L7.7 2.8H0.7C0.3134 2.8 0 2.4866 0 2.1C0 1.74101 0.270216 1.44515 0.618353 1.40471L0.7 1.4H7.7C7.73959 1.4 7.77842 1.40329 7.81621 1.4096C8.10114 0.58937 8.88174 0 9.8 0ZM9.8 1.4C9.4134 1.4 9.1 1.7134 9.1 2.1C9.1 2.4866 9.4134 2.8 9.8 2.8C10.1866 2.8 10.5 2.4866 10.5 2.1C10.5 1.7134 10.1866 1.4 9.8 1.4Z" fill="white"/>
</svg>
