<svg width="16" height="16" viewBox="0 0 16 16" fill="none" xmlns="http://www.w3.org/2000/svg">
<path d="M13.04 3.6H10.8V2.88C10.8 1.792 9.90403 0.895996 8.81603 0.895996H7.16803C6.08003 0.895996 5.18403 1.792 5.18403 2.88V3.584H2.94403C1.53603 3.584 0.384033 4.736 0.384033 6.144V12.544C0.384033 13.952 1.53603 15.104 2.94403 15.104H13.04C14.448 15.104 15.6 13.952 15.6 12.544V6.144C15.6 4.736 14.448 3.6 13.04 3.6ZM6.32003 2.88C6.32003 2.416 6.70403 2.032 7.16803 2.032H8.83203C9.29603 2.032 9.68003 2.416 9.68003 2.88V3.584H6.32003V2.88ZM2.96003 4.736H13.056C13.84 4.736 14.48 5.376 14.48 6.16V7.952C13.936 8.096 13.232 8.224 12.352 8.352C12.16 7.632 11.504 7.12 10.736 7.12C9.87203 7.12 9.16803 7.76 9.07203 8.592C8.73603 8.608 8.40003 8.608 8.03203 8.608C7.66403 8.608 7.32803 8.608 6.99203 8.592C6.89603 7.76 6.17603 7.12 5.32803 7.12C4.56003 7.12 3.90403 7.648 3.71203 8.352C2.83203 8.24 2.12803 8.096 1.58403 7.952V6.144C1.53603 5.36 2.17603 4.736 2.96003 4.736ZM11.264 8.768V9.52C11.264 9.824 11.024 10.064 10.72 10.064C10.416 10.064 10.176 9.824 10.176 9.52V8.768C10.176 8.464 10.416 8.224 10.72 8.224C11.024 8.224 11.264 8.464 11.264 8.768ZM5.84003 8.768V9.52C5.84003 9.824 5.60003 10.064 5.29603 10.064C4.99203 10.064 4.75203 9.824 4.75203 9.52V8.768C4.75203 8.464 4.99203 8.224 5.29603 8.224C5.58403 8.224 5.84003 8.464 5.84003 8.768ZM13.04 13.968H2.96003C2.17603 13.968 1.53603 13.328 1.53603 12.544V9.104C2.16003 9.248 2.86403 9.376 3.61603 9.456V9.52C3.61603 10.448 4.36803 11.2 5.29603 11.2C6.16003 11.2 6.88003 10.544 6.96003 9.696C7.29603 9.712 7.64803 9.712 8.00003 9.712C8.35203 9.712 8.70403 9.712 9.04003 9.696C9.12003 10.544 9.84003 11.2 10.704 11.2C11.632 11.2 12.384 10.448 12.384 9.52V9.456C13.136 9.36 13.824 9.248 14.464 9.104V12.544C14.464 13.328 13.824 13.968 13.04 13.968Z" fill="#78849B"/>
</svg>
