<svg width="107" height="31" viewBox="0 0 107 31" fill="none" xmlns="http://www.w3.org/2000/svg">
<path fill-rule="evenodd" clip-rule="evenodd" d="M55.3502 9.7075C54.7919 9.7075 53.7506 9.7075 53.5033 10.8413L51.6587 18.9401C51.6284 19.0734 51.5928 19.2129 51.554 19.3648C51.4974 19.5864 51.4338 19.8399 51.3749 20.1057C51.3091 19.7129 51.2216 19.324 51.1128 18.9409L49.3969 10.8475C49.3494 10.5047 49.1717 10.1933 48.9007 9.97798C48.6327 9.76583 48.2914 9.66856 47.9517 9.7075C47.6125 9.67215 47.273 9.7709 47.0057 9.98263C46.736 10.1975 46.5578 10.5065 46.5072 10.8475L44.7929 18.9347C44.7231 19.1943 44.6409 19.5934 44.5447 20.1437C44.4688 19.7957 44.3889 19.4601 44.3183 19.1625L42.4846 10.8468C42.2458 9.7075 41.0192 9.7075 40.6167 9.7075C40.4029 9.69827 40.1896 9.73476 39.9911 9.81455C39.7925 9.89434 39.6133 10.0156 39.4653 10.1702C39.3809 10.2853 39.3241 10.4183 39.2994 10.5589C39.2747 10.6994 39.2826 10.8438 39.3227 10.9808L42.4807 24.2287C42.7288 25.2416 43.7143 25.3555 44.4323 25.3555C45.1611 25.3555 46.028 25.223 46.2784 24.1845L47.7842 17.845L47.8075 17.7373C47.8486 17.5536 47.9013 17.3134 47.9517 17.0661C48.0191 17.3761 48.0905 17.6675 48.1378 17.8512L49.6435 24.1845C49.8916 25.223 50.75 25.3555 51.4679 25.3555C51.8866 25.3555 53.1582 25.3555 53.4412 24.1845L56.6419 10.9808C56.6822 10.8427 56.6903 10.6973 56.6657 10.5556C56.6411 10.4139 56.5844 10.2797 56.5 10.1632C56.3534 10.0069 56.1739 9.88512 55.9743 9.8067C55.7763 9.72761 55.563 9.69372 55.3502 9.7075ZM61.8144 13.5011C58.4904 13.5011 56.8055 15.5022 56.8055 19.4531C56.8055 23.4056 58.4904 25.4005 61.8144 25.4005C65.1384 25.4005 66.8232 23.3987 66.8232 19.4539C66.8232 15.5084 65.1384 13.5011 61.8144 13.5011ZM61.8144 22.867C60.4885 22.867 59.8698 21.7843 59.8698 19.4539C59.8698 17.8574 60.0915 16.0338 61.8144 16.0338C63.5558 16.0338 63.7799 17.8582 63.7799 19.4539C63.7799 21.7843 63.155 22.867 61.8144 22.867ZM73.5037 13.374C72.7194 13.4421 71.989 13.8016 71.4568 14.3815C71.3448 14.0873 71.1366 13.8396 70.866 13.6786C70.5984 13.5191 70.2842 13.4562 69.9758 13.5004C69.1074 13.5004 68.6345 13.9127 68.6345 14.6722V24.1907C68.6345 24.9572 69.1927 25.3811 70.2085 25.3811C71.2257 25.3811 71.784 24.9572 71.784 24.1907V18.8711C71.784 17.2436 72.4919 16.4523 74.0108 16.3756C75.1545 16.3252 75.1545 15.534 75.1545 14.6915C75.1729 14.5074 75.1525 14.3214 75.0944 14.1457C75.0362 13.97 74.9418 13.8085 74.8172 13.6716C74.6322 13.5312 74.4192 13.4321 74.1927 13.3807C73.9662 13.3294 73.7312 13.3271 73.5037 13.374ZM82.4429 18.2503L85.3265 15.2929C85.461 15.1718 85.5612 15.0172 85.6167 14.8449C85.6723 14.6726 85.6813 14.4887 85.6428 14.3118C85.569 14.113 85.4444 13.9369 85.2815 13.8011C85.12 13.6672 84.9257 13.579 84.7186 13.5453C84.2776 13.4303 83.8129 13.4441 83.3795 13.5848C82.9436 13.7274 82.5568 13.9901 82.2638 14.3428L79.6035 17.1235V10.8599C79.6035 10.0873 79.0142 9.64395 77.9853 9.64395C77.0146 9.64395 76.4346 10.1004 76.4346 10.8607V24.1644C76.4346 24.9494 76.9874 25.3803 77.9853 25.3803C79.0266 25.3803 79.6035 24.9494 79.6035 24.1644V21.169L80.3293 20.4219L82.598 24.4813C82.7088 24.7875 82.9166 25.0471 83.1888 25.2191C83.4602 25.3912 83.7804 25.4656 84.0991 25.4307C84.1851 25.4307 84.2782 25.4245 84.3774 25.4183C84.6457 25.4199 84.9109 25.3547 85.1489 25.2276C85.3876 25.0995 85.5912 24.9148 85.7421 24.6898C85.8085 24.5571 85.8384 24.4091 85.8286 24.261C85.8188 24.1129 85.7696 23.9702 85.6862 23.8474L82.4429 18.2496V18.2503ZM95.8419 18.2C95.8729 17.568 95.7786 16.9361 95.5643 16.3407C95.3513 15.7485 95.0218 15.2048 94.5951 14.7419C94.1339 14.3013 93.5886 13.9581 92.9917 13.7329C92.3975 13.5085 91.7637 13.408 91.1293 13.4376C87.9549 13.4376 86.0576 15.6603 86.0576 19.3842C86.0824 23.184 88.0108 25.4694 91.2161 25.4888C93.3615 25.4888 94.9797 24.3806 95.538 22.5376C95.5905 22.3956 95.6116 22.244 95.5998 22.093C95.5881 21.9421 95.5437 21.7955 95.4698 21.6634C95.3646 21.5136 95.2255 21.3908 95.0638 21.305C94.9021 21.2192 94.7224 21.1729 94.5393 21.1698C93.4422 21.0496 93.008 21.417 92.8343 21.7464C92.7218 22.068 92.509 22.3451 92.2272 22.5369C91.9473 22.7275 91.6147 22.8213 91.2781 22.8035C89.9825 22.829 89.325 21.9742 89.232 20.2134H93.7585C94.9921 20.2134 95.8171 19.8716 95.8419 18.2ZM89.3312 17.8962C89.5235 16.667 90.2182 15.9711 91.2595 15.9711C91.4711 15.9631 91.682 15.9991 91.8788 16.0769C92.0757 16.1547 92.2543 16.2725 92.4032 16.4229C92.5536 16.5748 92.6715 16.7561 92.7498 16.9561C92.8281 17.156 92.8653 17.3699 92.8591 17.5854C92.8723 17.6719 92.8523 17.7601 92.8033 17.8326C92.7583 17.8749 92.6984 17.8978 92.6366 17.8962H89.3312ZM105.52 21.1698C104.417 21.0496 103.989 21.417 103.815 21.7464C103.702 22.0679 103.489 22.3449 103.208 22.5369C102.929 22.7271 102.596 22.8207 102.259 22.8035C100.988 22.829 100.306 21.9742 100.213 20.2134H104.738C105.973 20.2134 106.797 19.8716 106.822 18.2C106.853 17.568 106.759 16.9361 106.545 16.3407C106.331 15.7487 106.002 15.2052 105.576 14.7419C105.114 14.3013 104.569 13.9581 103.972 13.7329C103.378 13.5085 102.744 13.408 102.11 13.4376C98.9356 13.4376 97.0383 15.6603 97.0383 19.3842C97.0631 23.184 98.9914 25.4694 102.191 25.4888H102.197C104.342 25.4888 105.96 24.3806 106.518 22.5376C106.572 22.3958 106.593 22.2439 106.581 22.0928C106.569 21.9417 106.525 21.7951 106.45 21.6634C106.344 21.5143 106.205 21.392 106.043 21.3063C105.882 21.2205 105.703 21.1738 105.52 21.1698ZM100.312 17.8962C100.504 16.667 101.193 15.9711 102.234 15.9711C102.445 15.961 102.656 15.9966 102.854 16.0741C103.05 16.1516 103.23 16.2694 103.381 16.4213C103.532 16.5745 103.65 16.7565 103.729 16.9565C103.808 17.1566 103.846 17.3705 103.84 17.5854C103.853 17.6719 103.833 17.7601 103.784 17.8326C103.739 17.875 103.679 17.8978 103.616 17.8962H100.312ZM27.824 10.1454C27.6352 10.2142 27.4619 10.3196 27.314 10.4557C27.1662 10.5918 27.0468 10.7558 26.9626 10.9382C26.8791 11.1206 26.8331 11.3178 26.8272 11.5183C26.8214 11.7188 26.8558 11.9184 26.9285 12.1054C27.4496 13.4283 27.716 14.8376 27.7139 16.2594C27.7139 22.7151 22.2624 27.9673 15.5617 27.9673C13.48 27.9689 11.4305 27.4533 9.5976 26.4669C8.58731 25.9151 7.31183 26.2561 4.95783 26.9629C4.61357 27.0683 4.17782 27.1985 3.75137 27.3163C3.86767 27.1055 3.98088 26.9071 4.07702 26.7397C5.05863 25.0099 5.90533 23.5157 5.12919 22.2679C4.00525 20.4651 3.40896 18.3836 3.40789 16.2594C3.40789 9.79818 8.86023 4.546 15.5617 4.546C17.3954 4.53825 19.2074 4.93815 20.8652 5.7178C21.2359 5.89163 21.6598 5.91442 22.0471 5.78134C22.4343 5.64826 22.7546 5.36976 22.94 5.0048C23.0273 4.82463 23.0776 4.62886 23.0881 4.42898C23.0987 4.2291 23.0691 4.02914 23.0013 3.84081C22.9335 3.65248 22.8288 3.47958 22.6932 3.33225C22.5577 3.18492 22.3941 3.06612 22.212 2.98283C20.1307 2.00909 17.8597 1.50731 15.5617 1.51343C7.14513 1.51343 0.297907 8.1296 0.297907 16.2594C0.299458 18.8068 0.980226 21.3085 2.26888 23.5087C2.00052 24.1138 1.69576 24.702 1.35628 25.2703C0.30411 27.1241 -0.689905 28.8725 0.640617 30.1009C1.72923 31.1052 3.46604 30.5844 5.87431 29.8652C6.67129 29.6017 7.48455 29.3902 8.30895 29.2321C10.5494 30.3966 13.038 31.003 15.5632 30.9998C23.979 30.9998 30.8262 24.3891 30.8262 16.2594C30.8285 14.4662 30.492 12.6887 29.8346 11.0204C29.681 10.6409 29.3845 10.337 29.0088 10.1741C28.6326 10.011 28.2077 10.0007 27.824 10.1454ZM31.9094 0.496627C31.5863 0.178091 31.1508 -0.000556795 30.6969 -0.000701816C30.2431 -0.000846836 29.8074 0.177523 29.4841 0.495852L15.3058 17.0793L9.70538 12.7819C9.35304 12.5057 8.90734 12.3765 8.46181 12.4216C8.01627 12.4667 7.60551 12.6825 7.31571 13.0237C7.10375 13.2763 6.97369 13.5873 6.94281 13.9156C6.91192 14.2438 6.98168 14.5736 7.14281 14.8613C7.24903 15.0519 7.39247 15.2201 7.56538 15.3549L14.349 20.5885C14.6776 20.8467 15.0888 20.9771 15.5063 20.9555C15.9237 20.9338 16.3192 20.7616 16.6193 20.4707L31.8831 2.83403C32.0421 2.68447 32.1693 2.50437 32.257 2.30452C32.3448 2.10467 32.3913 1.88917 32.3938 1.67093C32.3962 1.45269 32.3546 1.2362 32.2714 1.03442C32.1882 0.832646 32.065 0.649729 31.9094 0.496627Z" fill="#FFB002"/>
</svg>
