<svg width="16" height="16" viewBox="0 0 16 16" fill="none" xmlns="http://www.w3.org/2000/svg">
<path d="M14.1875 0.125H1.8125C1.51413 0.125 1.22798 0.243526 1.017 0.454505C0.806026 0.665483 0.6875 0.951631 0.6875 1.25V14.75C0.6875 15.0484 0.806026 15.3345 1.017 15.5455C1.22798 15.7565 1.51413 15.875 1.8125 15.875H14.1875C14.4859 15.875 14.772 15.7565 14.983 15.5455C15.194 15.3345 15.3125 15.0484 15.3125 14.75V1.25C15.3125 0.951631 15.194 0.665483 14.983 0.454505C14.772 0.243526 14.4859 0.125 14.1875 0.125ZM9.6875 1.25V1.8125H6.3125V1.25H9.6875ZM1.8125 14.75V1.25H5.1875V1.8125C5.1875 2.11087 5.30603 2.39702 5.517 2.608C5.72798 2.81897 6.01413 2.9375 6.3125 2.9375H9.6875C9.98587 2.9375 10.272 2.81897 10.483 2.608C10.694 2.39702 10.8125 2.11087 10.8125 1.8125V1.25H14.1875V14.75H1.8125Z" fill="#78849B"/>
<path d="M5.1875 4.0625H4.625C4.32663 4.0625 4.04048 4.18103 3.82951 4.39201C3.61853 4.60298 3.5 4.88913 3.5 5.1875V5.75C3.5 6.04837 3.61853 6.33452 3.82951 6.5455C4.04048 6.75647 4.32663 6.875 4.625 6.875H5.1875C5.48587 6.875 5.77202 6.75647 5.983 6.5455C6.19397 6.33452 6.3125 6.04837 6.3125 5.75V5.1875C6.3125 4.88913 6.19397 4.60298 5.983 4.39201C5.77202 4.18103 5.48587 4.0625 5.1875 4.0625ZM4.625 5.75V5.1875H5.1875V5.75H4.625Z" fill="#78849B"/>
<path d="M5.1875 7.4375H4.625C4.32663 7.4375 4.04048 7.55603 3.82951 7.76701C3.61853 7.97798 3.5 8.26413 3.5 8.5625V9.125C3.5 9.42337 3.61853 9.70952 3.82951 9.9205C4.04048 10.1315 4.32663 10.25 4.625 10.25H5.1875C5.48587 10.25 5.77202 10.1315 5.983 9.9205C6.19397 9.70952 6.3125 9.42337 6.3125 9.125V8.5625C6.3125 8.26413 6.19397 7.97798 5.983 7.76701C5.77202 7.55603 5.48587 7.4375 5.1875 7.4375ZM4.625 9.125V8.5625H5.1875V9.125H4.625Z" fill="#78849B"/>
<path d="M5.1875 10.8125H4.625C4.32663 10.8125 4.04048 10.931 3.82951 11.142C3.61853 11.353 3.5 11.6391 3.5 11.9375V12.5C3.5 12.7984 3.61853 13.0845 3.82951 13.2955C4.04048 13.5065 4.32663 13.625 4.625 13.625H5.1875C5.48587 13.625 5.77202 13.5065 5.983 13.2955C6.19397 13.0845 6.3125 12.7984 6.3125 12.5V11.9375C6.3125 11.6391 6.19397 11.353 5.983 11.142C5.77202 10.931 5.48587 10.8125 5.1875 10.8125ZM4.625 12.5V11.9375H5.1875V12.5H4.625Z" fill="#78849B"/>
<path d="M11.9375 4.90625H8.5625C8.41332 4.90625 8.27024 4.96551 8.16475 5.071C8.05926 5.17649 8 5.31957 8 5.46875C8 5.61793 8.05926 5.76101 8.16475 5.8665C8.27024 5.97199 8.41332 6.03125 8.5625 6.03125H11.9375C12.0867 6.03125 12.2298 5.97199 12.3352 5.8665C12.4407 5.76101 12.5 5.61793 12.5 5.46875C12.5 5.31957 12.4407 5.17649 12.3352 5.071C12.2298 4.96551 12.0867 4.90625 11.9375 4.90625Z" fill="#78849B"/>
<path d="M11.9375 8.28125H8.5625C8.41332 8.28125 8.27024 8.34051 8.16475 8.446C8.05926 8.55149 8 8.69457 8 8.84375C8 8.99293 8.05926 9.13601 8.16475 9.2415C8.27024 9.34699 8.41332 9.40625 8.5625 9.40625H11.9375C12.0867 9.40625 12.2298 9.34699 12.3352 9.2415C12.4407 9.13601 12.5 8.99293 12.5 8.84375C12.5 8.69457 12.4407 8.55149 12.3352 8.446C12.2298 8.34051 12.0867 8.28125 11.9375 8.28125Z" fill="#78849B"/>
<path d="M11.9375 11.6562H8.5625C8.41332 11.6562 8.27024 11.7155 8.16475 11.821C8.05926 11.9265 8 12.0696 8 12.2188C8 12.3679 8.05926 12.511 8.16475 12.6165C8.27024 12.722 8.41332 12.7812 8.5625 12.7812H11.9375C12.0867 12.7812 12.2298 12.722 12.3352 12.6165C12.4407 12.511 12.5 12.3679 12.5 12.2188C12.5 12.0696 12.4407 11.9265 12.3352 11.821C12.2298 11.7155 12.0867 11.6562 11.9375 11.6562Z" fill="#78849B"/>
</svg>
