<svg width="16" height="16" viewBox="0 0 16 16" fill="none" xmlns="http://www.w3.org/2000/svg">
<path d="M3.66244 14.4001C3.61906 14.4435 3.56755 14.4779 3.51086 14.5014C3.45417 14.5249 3.3934 14.537 3.33204 14.537C3.27068 14.537 3.20992 14.5249 3.15323 14.5014C3.09654 14.4779 3.04503 14.4435 3.00164 14.4001L0.668842 12.0641C0.602706 11.999 0.557484 11.9156 0.538948 11.8246C0.520411 11.7336 0.5294 11.6392 0.564767 11.5533C0.600135 11.4675 0.660277 11.3941 0.737519 11.3426C0.81476 11.2911 0.905599 11.2638 0.998442 11.2641H2.40004V1.93131C2.40004 1.86996 2.41213 1.8092 2.43561 1.75252C2.45908 1.69584 2.4935 1.64433 2.53688 1.60095C2.58027 1.55757 2.63177 1.52315 2.68845 1.49967C2.74514 1.4762 2.80589 1.46411 2.86724 1.46411H3.80164C3.92555 1.46411 4.04438 1.51333 4.132 1.60095C4.21962 1.68857 4.26884 1.8074 4.26884 1.93131V11.2673H5.66884C5.76168 11.267 5.85252 11.2943 5.92977 11.3458C6.00701 11.3973 6.06715 11.4707 6.10252 11.5565C6.13788 11.6424 6.14687 11.7368 6.12834 11.8278C6.1098 11.9188 6.06458 12.0022 5.99844 12.0673L3.66244 14.4001ZM7.06724 2.86571V1.93131C7.06724 1.8074 7.11647 1.68857 7.20408 1.60095C7.2917 1.51333 7.41053 1.46411 7.53444 1.46411H15.0016C15.1256 1.46411 15.2444 1.51333 15.332 1.60095C15.4196 1.68857 15.4688 1.8074 15.4688 1.93131V2.86571C15.4688 2.98962 15.4196 3.10845 15.332 3.19607C15.2444 3.28369 15.1256 3.33291 15.0016 3.33291H7.53284C7.40921 3.33249 7.29079 3.28308 7.20352 3.19551C7.11624 3.10794 7.06724 2.98934 7.06724 2.86571ZM7.06724 5.66731C7.06724 5.5434 7.11647 5.42457 7.20408 5.33695C7.2917 5.24933 7.41053 5.20011 7.53444 5.20011H13.1344C13.2578 5.20053 13.376 5.24972 13.4632 5.33695C13.5504 5.42417 13.5996 5.54236 13.6 5.66571V6.60011C13.6 6.72402 13.5508 6.84285 13.4632 6.93047C13.3756 7.01809 13.2568 7.06731 13.1328 7.06731H7.53284C7.40893 7.06731 7.2901 7.01809 7.20248 6.93047C7.11486 6.84285 7.06564 6.72402 7.06564 6.60011L7.06724 5.66731ZM7.06724 9.40171C7.06724 9.2778 7.11647 9.15897 7.20408 9.07135C7.2917 8.98374 7.41053 8.93451 7.53444 8.93451H11.2672C11.3912 8.93451 11.51 8.98374 11.5976 9.07135C11.6852 9.15897 11.7344 9.2778 11.7344 9.40171V10.3345C11.7344 10.4584 11.6852 10.5773 11.5976 10.6649C11.51 10.7525 11.3912 10.8017 11.2672 10.8017H7.53284C7.40893 10.8017 7.2901 10.7525 7.20248 10.6649C7.11486 10.5773 7.06564 10.4584 7.06564 10.3345L7.06724 9.40171ZM7.06724 13.1361C7.06724 13.0122 7.11647 12.8934 7.20408 12.8058C7.2917 12.7181 7.41053 12.6689 7.53444 12.6689H9.40004C9.52395 12.6689 9.64279 12.7181 9.7304 12.8058C9.81802 12.8934 9.86724 13.0122 9.86724 13.1361V14.0705C9.86724 14.1944 9.81802 14.3133 9.7304 14.4009C9.64279 14.4885 9.52395 14.5377 9.40004 14.5377H7.53284C7.40893 14.5377 7.2901 14.4885 7.20248 14.4009C7.11486 14.3133 7.06564 14.1944 7.06564 14.0705L7.06724 13.1361Z" fill="#78849B"/>
</svg>
